HIERARCHY
ROOT Hips
{
  OFFSET 0 0 0
  CHANNELS 6 Xposition Yposition Zposition Zrotation Yrotation Xrotation
  JOINT LeftThigh
  {
    OFFSET 8.409438 0 -5.917753
    CHANNELS 3 Zrotation Yrotation Xrotation
    JOINT LeftLeg
    {
      OFFSET 0 0 -42.358652
      CHANNELS 3 Zrotation Yrotation Xrotation
      JOINT LeftFoot
      {
        OFFSET 0 0 -39.357303
        CHANNELS 3 Zrotation Yrotation Xrotation
      }
    }
  }
  JOINT RightThigh
  {
    OFFSET -8.409438 0 -5.917753
    CHANNELS 3 Zrotation Yrotation Xrotation
    JOINT RightLeg
    {
      OFFSET 0 0 -42.358652
      CHANNELS 3 Zrotation Yrotation Xrotation
      JOINT RightFoot
      {
        OFFSET 0 0 -39.357303
        CHANNELS 3 Zrotation Yrotation Xrotation
      }
    }
  }
  JOINT SpineLow
  {
    OFFSET 0 0 4.719101
    CHANNELS 3 Zrotation Yrotation Xrotation
    JOINT SpineMid
    {
      OFFSET 0 0 12.899191
      CHANNELS 3 Zrotation Yrotation Xrotation
      JOINT Chest
      {
        OFFSET 0 0 12.899191
        CHANNELS 3 Zrotation Yrotation Xrotation
        JOINT LeftShoulder
        {
          OFFSET 7.550562 1.41573 9.438202
          CHANNELS 3 Zrotation Yrotation Xrotation
          JOINT LeftArm
          {
            OFFSET 9.155056 0 4.247191
            CHANNELS 3 Zrotation Yrotation Xrotation
            JOINT LeftForearm
            {
              OFFSET 0 0 25.771955
              CHANNELS 3 Zrotation Yrotation Xrotation
              JOINT LeftHand
              {
                OFFSET 0 0 25.197169
                CHANNELS 3 Zrotation Yrotation Xrotation
              }
            }
          }
        }
        JOINT RightShoulder
        {
          OFFSET -7.550562 1.41573 9.438202
          CHANNELS 3 Zrotation Yrotation Xrotation
          JOINT RightArm
          {
            OFFSET -9.155056 0 4.247191
            CHANNELS 3 Zrotation Yrotation Xrotation
            JOINT RightForearm
            {
              OFFSET 0 0 -25.771955
              CHANNELS 3 Zrotation Yrotation Xrotation
              JOINT RightHand
              {
                OFFSET 0 0 -25.197169
                CHANNELS 3 Zrotation Yrotation Xrotation
              }
            }
          }
        }
        JOINT Neck
        {
          OFFSET 0 0 15.101124
          CHANNELS 3 Zrotation Yrotation Xrotation
          JOINT Head
          {
            OFFSET 0 0 11.325843
            CHANNELS 3 Zrotation Yrotation Xrotation
            End Site
            {
              OFFSET 0 0 14.157303
            }
          }
        }
      }
    }
  }
}
MOTION
Frames: 11
Frame Time: 0.0
0.0  101.685394  0.0  -118.90564  50.344191  158.929304  45.215098  -32.066603  -52.198229  -10.582806  18.116511  31.071801  -11.405701  -3.293773  -2.928213  -27.13753  42.026893  -47.638577  1.413665  -0.062759  42.540987  -8.049836  -10.505111  -15.627816  -3.047202  -1.204657  3.907738  -8.503376  -2.785645  10.819656  -8.503375  -2.785645  10.819656  -4.015103  28.598969  11.270616  126.398002  48.821197  179.79424  -37.521632  -11.400342  99.69742  34.951562  5.580487  20.749701  -3.767729  0.02895  15.136587  63.53398  40.579265  34.079653  -21.623903  2.965352  -143.415588  57.552955  28.975234  30.984755  -10.289441  -14.677343  14.234539  -7.330326  -11.256583  10.368229  
0.0  101.685394  0.0  -120.596263  49.833858  157.237003  44.83303  -31.748062  -53.103633  -11.048489  18.476158  32.237681  -11.55296  -3.270841  -2.935835  -25.892732  43.162654  -46.847785  2.089357  -1.839568  44.96609  -9.102638  -10.043608  -16.04926  -3.408536  -1.241053  3.842104  -9.492289  -2.834511  10.65897  -9.49229  -2.834511  10.658971  -3.494992  29.148563  11.909552  124.231215  50.762886  179.596918  -36.625214  -12.167939  98.426428  33.451899  3.915906  20.852152  -3.963026  0.328644  15.908463  62.767263  40.314517  33.566599  -21.63399  2.716198  -143.366988  57.869564  28.547764  30.53996  -10.041917  -14.369468  14.636649  -7.145567  -11.026611  10.682064  
0.0  101.685394  0.0  -122.505191  49.269272  156.402323  44.109914  -30.896249  -54.410307  -12.05809  19.249344  33.291929  -10.944811  -3.428416  -3.197013  -26.671213  43.087127  -47.766125  3.213699  -3.769069  46.982393  -10.516682  -9.627499  -16.402883  -3.775962  -1.310867  3.635726  -10.498081  -2.997512  10.121048  -10.498082  -2.997512  10.121048  -3.518533  29.692083  11.791263  122.247425  52.226568  178.877645  -35.78184  -13.100961  97.118721  32.238724  2.226312  21.290156  -4.117912  0.514765  16.363497  62.158845  39.887287  33.479262  -21.845513  2.27155  -142.452964  58.054254  28.469866  29.402482  -9.755697  -14.070374  14.986276  -6.933112  -10.801054  10.957181  
0.0  101.685394  0.0  -124.042495  48.938524  155.888919  43.279904  -30.235083  -55.163422  -11.880288  19.114675  34.022473  -11.30415  -3.462401  -3.194556  -28.034315  42.705848  -49.270397  3.940898  -5.442565  48.71472  -11.988824  -9.296752  -16.457603  -4.11997  -1.366917  3.43342  -11.437438  -3.131778  9.592937  -11.437438  -3.131779  9.592938  -3.939673  30.451629  11.313534  120.347658  53.5996  177.76569  -35.106268  -14.464959  95.636141  31.173291  0.492405  22.128209  -4.161706  0.765761  16.939053  61.659473  39.581596  33.425325  -22.328069  2.225751  -142.033672  57.98959  27.99554  28.867265  -9.384572  -13.739035  15.299275  -6.659274  -10.548207  11.207377  
0.0  101.685394  0.0  -124.821521  48.806351  155.823413  42.638614  -30.036119  -55.466795  -11.635448  19.080152  34.393814  -11.45908  -3.537737  -3.191112  -29.574739  42.036726  -51.198522  4.004173  -6.455985  50.301128  -12.844174  -9.189873  -16.13577  -4.400336  -1.408004  3.258722  -12.201592  -3.234583  9.136166  -12.201592  -3.234583  9.136166  -4.182225  30.956171  11.068619  118.242856  54.937925  176.745975  -34.661795  -16.168512  93.977407  30.148029  -1.292039  23.082768  -4.087545  0.972446  17.423065  61.39247  39.16891  33.503546  -22.524325  2.110949  -141.583148  57.890295  27.70153  28.559651  -8.987085  -13.424832  15.632222  -6.364915  -10.307476  11.472238  
0.0  101.685394  0.0  -124.599658  48.924461  156.286359  42.245419  -30.333499  -55.319186  -11.274008  19.043173  34.581735  -11.317147  -3.600624  -3.243445  -30.855757  41.095814  -53.332874  3.312616  -6.507483  52.144525  -12.826637  -9.29942  -15.722081  -4.59441  -1.434261  3.157205  -12.730896  -3.298297  8.873055  -12.730896  -3.298296  8.873055  -4.282123  31.277118  10.743535  115.770551  56.10582  175.569642  -34.379796  -17.922044  92.322003  29.19217  -3.11569  23.858155  -3.93024  1.222822  17.94115  61.018863  38.765101  33.393057  -22.38163  1.933577  -141.282213  58.072583  27.534905  28.532635  -8.540529  -13.142263  15.841584  -6.035669  -10.086918  11.644718  
0.0  101.685394  0.0  -123.419643  49.281474  157.363585  42.308012  -30.961159  -55.034651  -10.726237  19.061682  34.693775  -11.008085  -3.64118  -3.271566  -31.551521  39.908428  -55.496279  1.822839  -5.229728  54.379501  -11.778262  -9.552324  -15.355844  -4.703982  -1.447533  3.123684  -13.030486  -3.326009  8.789188  -13.030486  -3.326009  8.789188  -4.448057  31.476764  10.204806  113.157762  57.128173  174.224952  -34.223012  -19.433028  90.803985  28.291962  -4.90911  24.311783  -3.70633  1.423547  18.126557  60.704027  38.217913  33.287069  -22.154004  1.796314  -140.978276  58.351745  27.3966  28.599642  -8.031498  -12.899291  15.828841  -5.663135  -9.890995  11.651299  
0.0  101.685394  0.0  -121.566621  49.820285  158.820805  42.596039  -31.708429  -54.682961  -10.027531  19.052903  34.984139  -10.751104  -3.627861  -3.27406  -31.777047  38.401284  -57.555968  0.149272  -2.759314  56.741474  -9.935852  -9.928487  -14.953635  -4.75588  -1.4412  3.115286  -13.170863  -3.303469  8.767241  -13.170864  -3.303469  8.767241  -4.545292  31.553515  9.66474  110.493936  58.023465  172.800335  -34.166518  -20.406672  89.445816  27.451562  -6.569885  24.364756  -3.657282  1.701131  18.320266  60.500988  37.632777  33.117231  -22.014062  1.691243  -140.631574  58.616062  27.227243  28.539061  -7.558703  -12.640384  15.72092  -5.319966  -9.682837  11.585913  
0.0  101.685394  0.0  -119.132949  50.511941  160.462026  43.089628  -32.472156  -54.18582  -9.236833  18.828982  35.493687  -10.509221  -3.500784  -3.293436  -31.57809  36.738879  -59.172986  -1.25662  0.193629  58.856982  -7.819126  -10.231086  -14.484448  -4.761493  -1.402955  3.132909  -13.181328  -3.195346  8.807505  -13.181328  -3.195346  8.807505  -4.625233  31.600438  9.223561  108.158785  58.907695  171.475741  -34.06696  -20.877228  88.290773  26.754779  -8.116575  24.202814  -3.484818  1.957218  18.332872  60.394049  36.858794  33.071326  -22.007621  1.57709  -140.098202  58.872898  27.055767  28.338915  -7.147363  -12.349195  15.549287  -5.024752  -9.451427  11.471852  
0.0  101.685394  0.0  -116.28655  51.252248  162.272494  43.882239  -33.103956  -53.682049  -8.7753  18.74436  36.055947  -10.183353  -3.353688  -3.270205  -30.933038  34.763957  -60.613494  -1.941044  3.156193  61.022988  -5.962263  -10.439571  -13.959519  -4.738397  -1.350353  3.182014  -13.112523  -3.045872  8.929371  -13.112523  -3.045872  8.929371  -4.880352  31.643567  8.660312  106.671081  59.744203  170.603132  -33.741974  -21.218145  87.4238  26.316215  -9.636135  23.989645  -3.62877  2.209018  18.275923  60.428876  36.04718  33.082962  -21.969689  1.581411  -139.696475  59.148618  26.915423  28.001889  -6.74788  -12.036488  15.218403  -4.741831  -9.202526  11.23845  
0.0  101.685394  0.0  -113.356687  51.882805  164.197461  44.879555  -33.542168  -53.241612  -8.543726  18.590914  36.520376  -9.873615  -3.166172  -3.28452  -30.172174  32.38041  -61.867632  -1.647843  5.616599  63.178679  -4.675036  -10.597216  -13.477213  -4.732602  -1.299776  3.227845  -13.090938  -2.900233  9.043495  -13.090938  -2.900233  9.043495  -5.130259  31.693388  8.158494  105.952429  60.571136  170.226081  -33.218439  -21.81763  86.833462  25.960919  -11.238747  23.871105  -3.735284  2.367455  18.172725  60.752202  35.314942  33.13156  -21.938562  1.549623  -139.133807  59.639788  26.825354  27.779146  -6.327992  -11.71866  14.810015  -4.444777  -8.948875  10.94702  
